<svg id="Otros" xmlns="http://www.w3.org/2000/svg" xmlns:xlink="http://www.w3.org/1999/xlink" viewBox="0 0 200.62 195.38"><defs><style>.cls-1,.cls-7{fill:none;}.cls-2{fill:#37baec;stroke-miterlimit:10;}.cls-2,.cls-7{stroke:#ffff;}.cls-3,.cls-4{isolation:isolate;font-size:28px;fill:#ffff;font-family:calibri;}.cls-4{letter-spacing:-2.91px;}.cls-5{clip-path:url(#clip-path);}.cls-6{clip-path:url(#clip-path-2);}.cls-7{stroke-linecap:round;stroke-linejoin:round;stroke-width:2px;}</style><clipPath id="clip-path" transform="translate(0.5 0.5)"><rect class="cls-1" y="-2" width="194.62" height="169.4"/></clipPath><clipPath id="clip-path-2" transform="translate(0.5 0.5)"><polyline class="cls-1" points="29.59 151.94 29.59 16.5 165.03 16.5 165.03 151.94"/></clipPath></defs><title>MedTemp Celeste con blanco</title><ellipse class="cls-2" cx="100.31" cy="97.69" rx="99.81" ry="97.19"/><text class="cls-3" transform="translate(38.56 157.42) scale(1.03 1)">Med</text><text class="cls-4" transform="translate(94.66 157.42) scale(1.03 1)" fill="#ffff">T</text><text class="cls-3" transform="translate(109.08 157.42) scale(1.03 1)">emp</text><g class="cls-5"><g id="p.1"><g class="cls-6"><path class="cls-7" d="M150.68,101.41l-8.28-8.28c6-6.23,4.43-14.14,4.07-21.51-0.45-9-2-18-3.19-27.5-7-4.45-12.94-.84-14.31,9.2-0.62,4.55-1.76,13.1-2.66,17.61" transform="translate(0.5 0.5)"/><path class="cls-7" d="M58,60.2c-10.3-4-10.28,8.69-3.5,15.45q22.55,22.48,45.36,44.7c6.24,6.09,10.76,5.56,16.94-1.3,3.2-3.55,6.74-6.8,10.13-10.19" transform="translate(0.5 0.5)"/><path class="cls-7" d="M126.3,70.94c-2-2.26-4-4.61-6.11-6.76C109.16,53.09,98.14,42,87,31c-7-6.88-13.94-3.58-12.87,6.1" transform="translate(0.5 0.5)"/><path class="cls-7" d="M131,30.3c-9.58-5.79-19.78-9.37-31.15-8.8" transform="translate(0.5 0.5)"/><path class="cls-7" d="M99.21,62.13c-8.35-8.35-16.65-16.76-25.08-25-3.73-3.65-7.83-5.26-12.5-.35a8.27,8.27,0,0,0-.84,2.95A8.66,8.66,0,0,0,62.12,45L89.06,72.29" transform="translate(0.5 0.5)"/><path class="cls-7" d="M124.27,98c-9.68-3.41-18-.31-25.73,5.42" transform="translate(0.5 0.5)"/><path class="cls-7" d="M51.81,101.41a50.57,50.57,0,0,0,21.67,23" transform="translate(0.5 0.5)"/><path class="cls-7" d="M61.29,45.2c-3.36-1.5-6.72,1-7.74,2.78q-4.22,7.49,27.38,35.14" transform="translate(0.5 0.5)"/><path class="cls-7" d="M109.37,70.94L87.7,92.61" transform="translate(0.5 0.5)"/><path class="cls-7" d="M122.24,36.4L104,31" transform="translate(0.5 0.5)"/><path class="cls-7" d="M61.29,98c2.41,7.89,8.64,12.43,14.9,16.93" transform="translate(0.5 0.5)"/><path class="cls-7" d="M112.08,79.06L101.25,89.9" transform="translate(0.5 0.5)"/><path class="cls-7" d="M116.14,122.4l7.45,7.45" transform="translate(0.5 0.5)"/><path class="cls-7" d="M98.54,92.61L93.12,98" transform="translate(0.5 0.5)"/><path class="cls-7" d="M91.76,42.49L89.06,45.2" transform="translate(0.5 0.5)"/><path class="cls-7" d="M132.4,103.44l-2.71,2.71" transform="translate(0.5 0.5)"/></g></g></g><line class="cls-7" x1="81.66" y1="52" x2="78.61" y2="54.77"/><line class="cls-7" x1="66.14" y1="75.33" x2="62.85" y2="78.56"/><line class="cls-7" x1="73.57" y1="63.24" x2="69.86" y2="66.76"/></svg>