<?xml version="1.0" encoding="utf-8"?>
<!-- Generator: Adobe Illustrator 19.2.1, SVG Export Plug-In . SVG Version: 6.00 Build 0)  -->
<svg version="1.1" id="Otros" xmlns="http://www.w3.org/2000/svg" xmlns:xlink="http://www.w3.org/1999/xlink" x="0px" y="0px"
	 viewBox="0 0 200.6 195.4" style="enable-background:new 0 0 200.6 195.4;" xml:space="preserve">
<style type="text/css">
	.st0{fill:#37BAEC;stroke:#ffff;stroke-miterlimit:10;}
	.st4{fill:#37BAEC;stroke:#37BAEC;stroke-miterlimit:10;}
	.st1{clip-path:url(#SVGID_2_);}
	.st2{clip-path:url(#SVGID_4_);}
	.st3{fill:none;stroke:#000000;stroke-width:2;stroke-linecap:round;stroke-linejoin:round;}
</style>
<title>MedTemp Celeste con blanco</title>
<ellipse class="st4" cx="100.3" cy="97.7" rx="99.8" ry="97.2"/>
<g>
	<defs>
		<rect id="SVGID_1_" x="-23.1" y="-3.5" width="243.7" height="212.1"/>
	</defs>
	<clipPath id="SVGID_2_">
		<use xlink:href="#SVGID_1_"  style="overflow:visible;"/>
	</clipPath>
	<g class="st1">
		<g>
			<g id="p.1">
				<defs>
					<polyline id="SVGID_3_" points="14,189.3 14,19.6 183.6,19.6 183.6,189.3 					"/>
				</defs>
				<clipPath id="SVGID_4_">
					<use xlink:href="#SVGID_3_"  style="overflow:visible;"/>
				</clipPath>
				<g class="st2" >
					<path class="st3" d="M165.6,126l-10.4-10.4c7.5-7.8,5.5-17.7,5.1-26.9c-0.6-11.3-2.5-22.5-4-34.4c-8.8-5.6-16.2-1.1-17.9,11.5
						c-0.8,5.7-2.2,16.4-3.3,22.1"/>
					<path class="st3" d="M49.5,74.4c-12.9-5-12.9,10.9-4.4,19.3c18.8,18.8,37.8,37.4,56.8,56c7.8,7.6,13.5,7,21.2-1.6
						c4-4.4,8.4-8.5,12.7-12.8"/>
					<path class="st3" d="M135.1,87.8c-2.5-2.8-5-5.8-7.7-8.5c-13.8-13.9-27.6-27.8-41.6-41.6c-8.8-8.6-17.5-4.5-16.1,7.6"/>
					<path class="st3" d="M141,36.9c-12-7.3-24.8-11.7-39-11"/>
					<path class="st3" d="M101.2,76.8c-10.5-10.5-20.9-21-31.4-31.3c-4.7-4.6-9.8-6.6-15.7-0.4c-0.6,1.2-0.9,2.4-1.1,3.7
						c-0.2,2.3,0.4,4.6,1.7,6.6l33.7,34.2"/>
					<path class="st3" d="M132.5,121.7c-12.1-4.3-22.5-0.4-32.2,6.8"/>
					<path class="st3" d="M41.8,126c5.7,12.3,15.2,22.3,27.1,28.8"/>
					<path class="st3" d="M53.7,55.6c-4.2-1.9-8.4,1.3-9.7,3.5c-3.5,6.3,7.9,20.9,34.3,44"/>
					<path class="st3" d="M113.9,87.8L86.7,115"/>
					<path class="st3" d="M130,44.6l-22.8-6.8"/>
					<path class="st3" d="M53.7,121.7c3,9.9,10.8,15.6,18.7,21.2"/>
					<path class="st3" d="M117.3,98l-13.6,13.6"/>
					<path class="st3" d="M122.4,152.3l9.3,9.3"/>
					<path class="st3" d="M100.3,115l-6.8,6.7"/>
					<path class="st3" d="M91.8,52.2l-3.4,3.4"/>
					<path class="st3" d="M142.7,128.5l-3.4,3.4"/>
				</g>
			</g>
		</g>
		<line class="st3" x1="78.6" y1="63.5" x2="74.7" y2="66.9"/>
		<line class="st3" x1="59.1" y1="92.7" x2="55" y2="96.7"/>
		<line class="st3" x1="68.4" y1="77.6" x2="63.8" y2="82"/>
	</g>
</g>
</svg>
